<?xml version="1.0" encoding="utf-8"?>
<!-- Generator: Adobe Illustrator 16.0.0, SVG Export Plug-In . SVG Version: 6.00 Build 0)  -->
<!DOCTYPE svg PUBLIC "-//W3C//DTD SVG 1.1//EN" "http://www.w3.org/Graphics/SVG/1.1/DTD/svg11.dtd">
<svg version="1.1" id="图层_1" xmlns="http://www.w3.org/2000/svg" xmlns:xlink="http://www.w3.org/1999/xlink" x="0px" y="0px"
	 width="58px" height="58px" viewBox="0 0 58 58" enable-background="new 0 0 58 58" xml:space="preserve">
<g>
	<rect x="84.252" y="0.002" fill="#5C5D5D" width="57.996" height="58.009"/>
	<path fill="#FFFFFF" d="M43.91,22.131v-5.548c0-0.993-0.805-1.798-1.8-1.798c-0.993,0-1.799,0.805-1.799,1.798v3.961
		c-0.593-0.12-1.203-0.184-1.83-0.184H19.645c-0.627,0-1.239,0.064-1.83,0.184v-5.421c0-0.172,0.016-0.364,0.053-0.603
		c0.009-0.061,0.015-0.123,0.018-0.185C18.16,8.354,23.071,3.668,29.063,3.668c4.108,0,7.878,2.245,9.841,5.86
		c0.475,0.874,1.565,1.197,2.439,0.723c0.872-0.475,1.196-1.566,0.722-2.439c-2.591-4.775-7.573-7.74-13.002-7.74
		c-7.89,0-14.359,6.145-14.769,14.008c-0.053,0.377-0.079,0.72-0.079,1.044v7.009c-2.323,1.687-3.846,4.417-3.846,7.505v9.471
		c0,0.405,0.033,0.832,0.103,1.304c0.502,9.907,8.651,17.656,18.591,17.656c9.94,0,18.09-7.751,18.592-17.66
		c0.067-0.468,0.101-0.895,0.101-1.3v-9.471C47.756,26.55,46.233,23.819,43.91,22.131z M38.481,23.959
		c2.827,0,5.172,2.081,5.6,4.791c-0.951-0.943-2.128-1.667-3.458-2.071c-0.632-0.196-1.304,0.164-1.495,0.797
		c-0.192,0.634,0.165,1.304,0.798,1.497c2.286,0.696,3.943,2.716,4.232,5.052v5.083c0,0.254-0.022,0.522-0.075,0.85
		c-0.009,0.063-0.016,0.128-0.018,0.191c-0.081,1.753-0.456,3.422-1.08,4.961c-2.269,5.473-7.654,9.28-13.922,9.28
		c-6.264,0-11.647-3.802-13.918-9.271c-0.625-1.541-1.004-3.212-1.083-4.966c-0.004-0.062-0.011-0.126-0.02-0.188
		c-0.052-0.333-0.075-0.604-0.075-0.856v-5.096c0.364-2.981,2.906-5.3,5.984-5.3h14.111c0.664,0,1.201-0.536,1.201-1.198
		c0-0.663-0.537-1.2-1.201-1.2H19.952c-2.299,0-4.384,0.927-5.905,2.423c0.433-2.704,2.774-4.779,5.598-4.779H38.481z"/>
	<g>
		<g>
			<path fill="#FFFFFF" d="M19.932,40.103c2.114,2.303,4.229,4.606,6.343,6.91c0.517,0.562,1.633,0.781,2.272,0.293
				c3.512-2.681,7.023-5.362,10.535-8.043c1.895-1.446,0.03-4.706-1.893-3.238c-3.512,2.681-7.023,5.362-10.535,8.043
				c0.758,0.098,1.515,0.195,2.272,0.293c-2.114-2.303-4.229-4.606-6.343-6.91C20.945,35.665,18.3,38.324,19.932,40.103
				L19.932,40.103z"/>
		</g>
	</g>
</g>
</svg>
